<svg id="https:_www.flaticon.com_free-icon_3d_1372556" data-name="https://www.flaticon.com/free-icon/3d_1372556" xmlns="http://www.w3.org/2000/svg" width="57.056" height="60.039" viewBox="0 0 57.056 60.039">
  <path id="Path_1" data-name="Path 1" d="M342.484,308.411l-2.07,1.147a.88.88,0,0,0,.852,1.539l2.07-1.147a.88.88,0,1,0-.852-1.539Zm0,0" transform="translate(-300.154 -272.148)" fill="#0181f5"/>
  <path id="Path_2" data-name="Path 2" d="M342.483,287.13l-2.07,1.147a.88.88,0,0,0,.852,1.539l2.07-1.147a.879.879,0,1,0-.852-1.539Zm0,0" transform="translate(-300.153 -253.362)" fill="#0181f5"/>
  <path id="Path_3" data-name="Path 3" d="M57.424,44.3a.889.889,0,0,0,.131-.461V36.106a.88.88,0,0,0-1.759,0v6.382l-8.457-3.772V22.374L55.8,17.688V32.276a.88.88,0,0,0,1.759,0V16.2a.893.893,0,0,0-.453-.769L29.454.109a.891.891,0,0,0-.852,0L.953,15.426a.89.89,0,0,0-.453.78V43.843a.893.893,0,0,0,.453.77l12.182,6.749a.879.879,0,0,0,.852-1.539L3.347,43.929l8.205-3.659,16.6,9.194v8.205L17.475,51.756a.879.879,0,1,0-.852,1.539L28.6,59.93a.891.891,0,0,0,.852,0l12.562-6.96a.879.879,0,0,0-.852-1.539L29.907,57.668V49.463l16.6-9.194,8.205,3.659L44.649,49.5A.879.879,0,1,0,45.5,51.04l11.6-6.427A.893.893,0,0,0,57.424,44.3Zm-28.4-31.1,15.617,8.652L29.027,30.507,13.411,21.855ZM46.459,20.85,29.907,11.68V2.37L54.861,16.2ZM28.148,11.68,11.6,20.85,3.194,16.2,28.148,2.37ZM2.259,17.688l8.457,4.686V38.716L2.259,42.488Zm10.217,5.66,6.384,3.537,9.289,5.146V47.452L12.475,38.769Zm17.432,8.683L45.58,23.348V38.769L29.907,47.452Zm0,0" transform="translate(-0.5)" fill="#0181f5"/>
</svg>
