<svg id="https:_www.flaticon.com_free-icon_layers_149298" data-name="https://www.flaticon.com/free-icon/layers_149298" xmlns="http://www.w3.org/2000/svg" width="61.901" height="60.039" viewBox="0 0 61.901 60.039">
  <circle id="Ellipse_2" data-name="Ellipse 2" cx="1.126" cy="1.126" r="1.126" transform="translate(49.586 27.203)" fill="#0181f5"/>
  <circle id="Ellipse_3" data-name="Ellipse 3" cx="1.126" cy="1.126" r="1.126" transform="translate(9.035 27.203)" fill="#0181f5"/>
  <circle id="Ellipse_4" data-name="Ellipse 4" cx="1.126" cy="1.126" r="1.126" transform="translate(12.414 30.582)" fill="#0181f5"/>
  <circle id="Ellipse_5" data-name="Ellipse 5" cx="1.126" cy="1.126" r="1.126" transform="translate(19.173 30.582)" fill="#0181f5"/>
  <circle id="Ellipse_6" data-name="Ellipse 6" cx="1.126" cy="1.126" r="1.126" transform="translate(15.793 33.961)" fill="#0181f5"/>
  <circle id="Ellipse_7" data-name="Ellipse 7" cx="1.126" cy="1.126" r="1.126" transform="translate(22.552 33.961)" fill="#0181f5"/>
  <circle id="Ellipse_8" data-name="Ellipse 8" cx="1.126" cy="1.126" r="1.126" transform="translate(25.931 37.341)" fill="#0181f5"/>
  <circle id="Ellipse_9" data-name="Ellipse 9" cx="1.126" cy="1.126" r="1.126" transform="translate(32.69 37.341)" fill="#0181f5"/>
  <circle id="Ellipse_10" data-name="Ellipse 10" cx="1.126" cy="1.126" r="1.126" transform="translate(36.069 33.961)" fill="#0181f5"/>
  <circle id="Ellipse_11" data-name="Ellipse 11" cx="1.126" cy="1.126" r="1.126" transform="translate(29.31 40.72)" fill="#0181f5"/>
  <circle id="Ellipse_12" data-name="Ellipse 12" cx="1.126" cy="1.126" r="1.126" transform="translate(39.448 30.582)" fill="#0181f5"/>
  <circle id="Ellipse_13" data-name="Ellipse 13" cx="1.126" cy="1.126" r="1.126" transform="translate(46.207 30.582)" fill="#0181f5"/>
  <circle id="Ellipse_14" data-name="Ellipse 14" cx="1.126" cy="1.126" r="1.126" transform="translate(42.827 33.961)" fill="#0181f5"/>
  <path id="Path_4" data-name="Path 4" d="M51.318,36.837,61.9,30.792,51.023,24.616,61.9,18.4,30.951.826,0,18.4l10.877,6.214L0,30.792l10.877,6.214L0,43.183,30.951,60.865,61.9,43.183,51.024,37.006l.08-.046A1.063,1.063,0,0,0,51.318,36.837ZM30.951,3.416l26.4,14.991-8.6,4.916h0L30.952,33.49,4.552,18.407ZM12.536,26.264a1.111,1.111,0,0,0,1.784.32l2.548,1.455a1.122,1.122,0,1,0,1.178,1.116,1.1,1.1,0,0,0-.149-.528l11.636,6.648a1.1,1.1,0,0,0-.223.639,1.126,1.126,0,1,0,2.253,0,.972.972,0,0,0-.033-.161l11.323-6.469a1.113,1.113,0,0,0,1.1,1,1.127,1.127,0,0,0,1.126-1.126,1.1,1.1,0,0,0-.457-.882l2.48-1.417a1.053,1.053,0,0,0,.23.046,1.114,1.114,0,0,0,1.057-.782l.36-.206,8.6,4.883-2.234,1.276a1.123,1.123,0,0,0-2.149.461,1.1,1.1,0,0,0,.224.64l-4.444,2.539h0l-7.2,4.111a1.1,1.1,0,0,0,.151-.532,1.126,1.126,0,1,0-1.175,1.116l-2.549,1.456a1.123,1.123,0,0,0-1.908.807,1.076,1.076,0,0,0,.052.255l-5.17,2.953-6.214-3.55a1.114,1.114,0,0,0-1.058-.784,1.06,1.06,0,0,0-.232.047l-2.479-1.416a1.106,1.106,0,0,0,.458-.883A1.127,1.127,0,0,0,20.3,38.167a1.114,1.114,0,0,0-1.1,1L7.875,32.7a1.015,1.015,0,0,0-1.094-1.289,1.1,1.1,0,0,0-.7.265L4.551,30.8ZM57.348,43.188l-26.4,15.083L4.552,43.188l8.6-4.883,17.8,10.169,17.8-10.169Z" transform="translate(0 -0.826)" fill="#0181f5"/>
</svg>
