<svg id="https:_www.flaticon.com_free-icon_sketch_681662" data-name="https://www.flaticon.com/free-icon/sketch_681662" xmlns="http://www.w3.org/2000/svg" width="60.232" height="60.039" viewBox="0 0 60.232 60.039">
  <g id="Group_2" data-name="Group 2" transform="translate(42.412 42.342)">
    <g id="Group_1" data-name="Group 1">
      <path id="Path_5" data-name="Path 5" d="M371.4,360.817a.884.884,0,0,0-.964.192l-9.661,9.661a.884.884,0,0,0,.625,1.509h9.661a.884.884,0,0,0,.884-.884v-9.661A.884.884,0,0,0,371.4,360.817Zm-7.866,9.594,6.643-6.643v6.643Z" transform="translate(-360.517 -360.749)" fill="#0181f5"/>
    </g>
  </g>
  <g id="Group_4" data-name="Group 4" transform="translate(0 0)">
    <g id="Group_3" data-name="Group 3">
      <path id="Path_6" data-name="Path 6" d="M59.686,29.059a.884.884,0,0,0-.963.192L56.075,31.9v-18a.884.884,0,0,0-.884-.884H48.4l2.466-2.466h0l2.376-2.376a2.7,2.7,0,0,0,0-3.812L50.494,1.609a2.7,2.7,0,0,0-3.812,0L44.3,3.986,41.432,6.859l-6.153,6.153H7.837V4.266a.884.884,0,0,0-.884-.884A6.961,6.961,0,0,0,0,10.335V47.884a.886.886,0,0,0,.021.19A6.7,6.7,0,0,0,6.7,54.262H33.712L28.624,59.35a.884.884,0,0,0,.625,1.509h30.1a.884.884,0,0,0,.884-.884v-30.1A.884.884,0,0,0,59.686,29.059ZM47.932,2.86a.928.928,0,0,1,1.312,0l2.748,2.748a.929.929,0,0,1,0,1.312L50.239,8.671,46.18,4.612Zm-3,3,4.059,4.059-1.622,1.622L43.308,7.484ZM58.464,39.81H56.833a.884.884,0,0,0,0,1.768h1.631v2.664H56.833a.884.884,0,1,0,0,1.768h1.631v2.664H56.833a.884.884,0,1,0,0,1.768h1.631v2.664H56.833a.884.884,0,0,0,0,1.768h1.631v4.216H31.383l8.93-8.93a.884.884,0,0,0-1.25-1.25L35.48,52.494H6.7a4.9,4.9,0,0,1-4.925-4.77q.008-.252.039-.5v0q.015-.117.035-.234l0-.026q.019-.1.041-.206l.013-.057q.02-.087.043-.173c.008-.031.017-.062.026-.093s.026-.09.041-.134.029-.088.045-.132.021-.061.033-.092c.022-.058.044-.115.068-.172l.02-.049c.03-.071.062-.14.095-.209l0-.009A5.2,5.2,0,0,1,5.9,42.807l.013,0c.073-.015.147-.028.221-.04l.037-.006c.067-.01.135-.018.2-.026l.057-.007c.066-.007.132-.011.2-.015l.063,0q.13-.007.262-.007a.884.884,0,0,0,.884-.884V35.4a.884.884,0,1,0-1.768,0v5.582A6.905,6.905,0,0,0,2.1,42.908c-.115.112-.224.229-.33.348V10.335a5.194,5.194,0,0,1,4.3-5.11V31.869h0a.884.884,0,1,0,1.768,0h0V14.78H33.511l-4.887,4.887a.884.884,0,1,0,1.25,1.25l6.4-6.4h0l5.786-5.786,4.059,4.059-.476.476h0L27.813,31.1l-4.059-4.059,3.514-3.514a.884.884,0,0,0-1.25-1.25l-4.139,4.139a.888.888,0,0,0-.062.07l-.018.025c-.012.017-.025.033-.036.051l-.018.031c-.01.016-.019.033-.028.05l-.016.034c-.008.017-.015.035-.022.053l-.008.018-1.722,4.879L18.773,34.95a.894.894,0,0,0-.035.134H15.8a.884.884,0,0,0,0,1.768H40.281a.884.884,0,1,0,0-1.768H22.716l5.391-1.9.013-.006.062-.026.024-.011c.021-.011.042-.022.062-.035l.02-.012c.021-.014.042-.029.062-.044l.015-.011a.886.886,0,0,0,.072-.064L46.63,14.78h7.677V33.667L41.661,46.313a.884.884,0,0,0,0,1.25.9.9,0,0,0,.067.061.884.884,0,0,0,1.183-.061h0L58.464,32.01ZM26.2,31.98l-2.532.894-1.687-1.687.894-2.532Z" transform="translate(0 -0.82)" fill="#0181f5"/>
    </g>
  </g>
</svg>
